# xmcd
#
# Track frame offsets: 
#        150
#        2743
#        3838
#        9358
#        12727
#        17932
#        19927
#        28451
#        34619
#        41078
#        44102
#        50818
#        55422
#        56928
#        62039
#        64192
#        74492
#        78638
#        87840
#        90895
#        100127
#        102175
#        117916
#        130701
#        140637
#        152847
#        157095
#        162959
#        164812
#        172867
#        179821
#        189317
#        193546
#        204830
#        214732
#        221011
#        230108
#        237218
#        243242
#        244528
#        250963
#        259479
#        267246
#        274489
#        276188
#        285583
#        287614
#        290099
#        299888
#        305968
#        312503
#        317486
#        329373
#        336820
#        341783
#        344288
#        354113
#
# Disc length: 4782 seconds
#
# Revision: 0
# Processed by: cddbd v1.5.2PL0 Copyright (c) Steve Scherf et al.
# Submitted via: ExactAudioCopy v0.99pb1
#
DISCID=8012ac39
DTITLE=Various Artist - PGM Vol. 22 - PGM Radio (hosted by Richie Spice and Jah
DTITLE=Dan)
DYEAR=2007
DGENRE=Reggae
TTITLE0=sweet honey in the rock/im gon stand
TTITLE1=pgm/man vs machine (interlude) (exclusive)
TTITLE2=ken boothe/is it because im black?
TTITLE3=pgm/do u understand (interlude) (exclusive)
TTITLE4=jah dan and richie spice/pgm radio intro (exclusive)
TTITLE5=malcolm x/our people (interlude) (exclusive)
TTITLE6=sizzla/dont judge
TTITLE7=yami bolo/hatred for my life
TTITLE8=capleton/rise up
TTITLE9=lutan fyah/more love (interlude) (exclusive)
TTITLE10=sizzla/education is the key
TTITLE11=jah mason/feel my pain
TTITLE12=pgm/as the mountains (interlude) (exclusive)
TTITLE13=lutan fyah/leave me lonely
TTITLE14=richie spice/burning (interlude) (exclusive)
TTITLE15=richie spice/african empress (exclusive)
TTITLE16=pgm/it is what it is (interlude) (exclusive)
TTITLE17=pressure/do good (exclusive)
TTITLE18=pgm/rock city (interlude) (exclusive)
TTITLE19=77 klash and jah dan/brooklyn anthem
TTITLE20=dainjamentalz/world premier (interlude)  (exclusive)
TTITLE21=khari kill, killah priest and jah bami/picture of selassie remi
TTITLE21=x (exclusive)
TTITLE22=sizzla/africa (rise up) (exclusive)
TTITLE23=sizzla/wake up (exclusive)
TTITLE24=richie spice/ny run red (dj child remix) (exclusive)
TTITLE25=huey p. newton/majority, minority (interlude)  (exclusive)
TTITLE26=chezidek/inna di road
TTITLE27=pgm/it is a must (interlude)  (exclusive)
TTITLE28=khari kill/mary grandson
TTITLE29=norris man/precious
TTITLE30=richie spice/open da door
TTITLE31=malcolm x/trumpet of truth (interlude)  (exclusive)
TTITLE32=jah cure and fantan mojah/dem nuh build great man
TTITLE33=gentleman/no doubt about it
TTITLE34=capleton/jah protect us
TTITLE35=richie spice/brown skin
TTITLE36=sizzla/show a little love
TTITLE37=norris man/hold your own
TTITLE38=norris man/pgm radio (interlude)  (exclusive)
TTITLE39=perfect/world trade center
TTITLE40=fantan mojah/in these times
TTITLE41=turbulence/repatriate
TTITLE42=bounty killer/world gone crazy
TTITLE43=angela davis/da resistance (interlude)  (exclusive)
TTITLE44=turbulence/got no love
TTITLE45=nyalas/projectgroundation.com (exclusive)
TTITLE46=lutan fyah/urgent!!! (interlude)  (exclusive)
TTITLE47=lutan fyah/waiting (exclusive)
TTITLE48=jah cure/what will it take
TTITLE49=natural black/life be the same way
TTITLE50=vybz kartel/society
TTITLE51=jah dan/they are so wrong (exclusive)
TTITLE52=capleton/dem doom
TTITLE53=perfect/love is what we need
TTITLE54=pgm/it just done (interlude)  (exclusive)
TTITLE55=richie spice/marijuana (dj child rmx) (exclusive)
TTITLE56=dr. king/3 dimensions (outro) (exclusive)
EXTD=
EXTT0=
EXTT1=
EXTT2=
EXTT3=
EXTT4=
EXTT5=
EXTT6=
EXTT7=
EXTT8=
EXTT9=
EXTT10=
EXTT11=
EXTT12=
EXTT13=
EXTT14=
EXTT15=
EXTT16=
EXTT17=
EXTT18=
EXTT19=
EXTT20=
EXTT21=
EXTT22=
EXTT23=
EXTT24=
EXTT25=
EXTT26=
EXTT27=
EXTT28=
EXTT29=
EXTT30=
EXTT31=
EXTT32=
EXTT33=
EXTT34=
EXTT35=
EXTT36=
EXTT37=
EXTT38=
EXTT39=
EXTT40=
EXTT41=
EXTT42=
EXTT43=
EXTT44=
EXTT45=
EXTT46=
EXTT47=
EXTT48=
EXTT49=
EXTT50=
EXTT51=
EXTT52=
EXTT53=
EXTT54=
EXTT55=
EXTT56=
PLAYORDER=
